<svg version="1.1" id="Layer_1" xmlns="http://www.w3.org/2000/svg" xmlns:xlink="http://www.w3.org/1999/xlink" x="0px" y="0px"
	 width="100%" viewBox="0 0 578 136" enable-background="new 0 0 578 136" xml:space="preserve">
<path fill="#FFFFFF" opacity="1.000000" stroke="none" 
	d="
M383.000000,137.000000 
	C255.333328,137.000000 128.166672,137.000000 1.000000,137.000000 
	C1.000000,91.666664 1.000000,46.333332 1.000000,1.000000 
	C193.666672,1.000000 386.333344,1.000000 579.000000,1.000000 
	C579.000000,46.333332 579.000000,91.666664 579.000000,137.000000 
	C513.833313,137.000000 448.666656,137.000000 383.000000,137.000000 
M13.566137,119.000000 
	C11.132432,119.000000 8.698727,119.000000 6.334261,119.000000 
	C6.334261,124.005592 6.334261,128.399475 6.334261,132.695831 
	C171.022537,132.695831 335.376373,132.695831 499.662537,132.695831 
	C499.662537,127.990479 499.662537,123.595261 499.662537,119.000000 
	C337.732758,119.000000 176.140381,119.000000 13.566137,119.000000 
M43.499489,101.000000 
	C48.831139,100.999977 54.187908,101.331131 59.489052,100.929001 
	C69.623177,100.160255 78.695061,96.851707 84.036705,87.459145 
	C91.051514,75.124580 87.263977,62.559975 73.878151,52.992935 
	C76.069221,50.678303 78.697258,48.660374 80.343834,46.028427 
	C86.710876,35.851078 85.203499,25.489313 77.586655,17.374588 
	C72.011353,11.434849 64.072159,9.187281 55.954422,9.065408 
	C40.795864,8.837831 25.631454,8.993491 10.469503,9.010633 
	C9.036067,9.012254 7.602800,9.162477 6.000000,9.253311 
	C6.000000,11.439719 6.223189,13.290650 5.956437,15.068050 
	C5.268892,19.649227 6.610888,22.265270 11.374535,24.061539 
	C18.180605,26.627958 20.527763,33.185387 17.981489,39.676865 
	C15.889282,45.010738 11.373096,47.175690 6.118730,48.344849 
	C6.118730,52.124851 6.118730,55.765812 6.118730,59.387833 
	C14.203811,61.234467 18.717028,65.632996 18.999859,71.878677 
	C19.406902,80.867332 16.028969,85.260239 6.291628,88.475586 
	C6.291628,92.592072 6.291628,96.678467 6.291628,101.000000 
	C18.554464,101.000000 30.527098,101.000000 43.499489,101.000000 
M446.312164,61.178783 
	C446.693909,59.795097 447.053101,58.404724 447.461334,57.028893 
	C449.254852,50.984081 453.963959,47.670891 459.595001,47.451202 
	C463.118195,47.313747 467.333557,49.617901 470.153687,52.072624 
	C472.073853,53.743996 472.821503,57.557125 472.879700,60.437088 
	C473.151001,73.865349 473.000000,87.302147 473.000000,100.703407 
	C479.299408,100.703407 485.033112,100.703407 491.000000,100.703407 
	C491.000000,85.599113 490.475098,70.765846 491.160187,55.988682 
	C491.745880,43.355038 481.562500,32.460182 467.638489,32.014160 
	C457.576141,31.691837 449.271057,35.587765 442.325470,43.131405 
	C437.543335,35.523746 430.394775,32.381168 421.863129,32.021301 
	C413.146454,31.653637 405.873077,35.143429 399.688019,41.532410 
	C398.864624,38.559437 398.239838,36.303505 397.705597,34.374557 
	C392.535614,34.374557 387.796967,34.374557 383.211334,34.374557 
	C383.211334,56.697342 383.211334,78.645126 383.211334,100.772095 
	C389.157440,100.772095 394.891174,100.772095 401.000000,100.772095 
	C401.000000,89.256592 400.929596,77.964478 401.046295,66.674294 
	C401.078033,63.600880 401.410614,60.476170 402.063080,57.474560 
	C403.565643,50.562542 412.439789,45.762051 419.212952,47.987152 
	C425.199707,49.953899 427.975281,53.644848 427.990021,59.879974 
	C428.022186,73.485237 428.000000,87.090630 428.000000,100.722794 
	C434.259094,100.722794 439.992981,100.722794 445.581116,100.722794 
	C445.793182,100.306175 445.925903,100.166962 445.926331,100.027321 
	C445.966492,87.363396 445.996490,74.699448 446.312164,61.178783 
M533.598450,100.114235 
	C548.368896,105.184052 561.308777,100.926361 569.366394,89.372452 
	C575.716675,80.266815 575.954468,70.126701 574.766479,60.173965 
	C573.129700,46.461384 565.993713,36.947411 553.216187,33.150009 
	C541.994446,29.815004 532.118774,33.026073 523.512756,40.775120 
	C522.823242,38.378307 522.192444,36.185551 521.628540,34.225334 
	C516.583801,34.225334 511.977142,34.225334 507.202606,34.225334 
	C507.202606,67.158279 507.202606,99.865807 507.202606,132.786621 
	C513.134705,132.786621 518.864197,132.786621 525.012146,132.786621 
	C525.012146,120.230209 525.012146,107.877342 525.012146,95.161880 
	C527.923584,96.959991 530.366577,98.468796 533.598450,100.114235 
M343.180817,48.023193 
	C347.126801,51.093567 348.824707,54.947300 347.741028,59.341534 
	C336.474426,59.152809 325.573364,57.251926 315.258759,62.922825 
	C307.689575,67.084305 304.750793,73.395760 304.944397,81.788231 
	C305.125824,89.653519 308.200287,95.636879 315.372559,99.010956 
	C328.068329,104.983482 339.835419,102.895416 350.740448,94.327782 
	C355.817383,104.862823 365.224731,101.613884 373.997803,101.914192 
	C373.997803,98.413063 374.317749,95.234818 373.860992,92.172417 
	C373.637177,90.671837 371.942261,88.181808 370.961914,88.204956 
	C365.759583,88.327789 364.983032,85.264946 364.993164,81.215370 
	C365.015259,72.382584 365.033203,63.549549 364.990326,54.716919 
	C364.950073,46.419544 360.690338,40.494541 353.867401,36.450558 
	C344.133209,30.681004 333.596527,31.142769 323.037476,33.505646 
	C317.933899,34.647709 312.941498,36.286674 308.099304,37.644424 
	C308.928040,39.921921 309.513306,41.420891 310.021454,42.945560 
	C312.498901,50.378990 312.994598,50.426853 320.555878,48.237217 
	C327.724213,46.161392 335.051300,44.118259 343.180817,48.023193 
M197.527084,100.005974 
	C206.010468,100.658890 214.620163,102.505310 222.941208,101.624512 
	C231.043320,100.766891 238.408203,96.366608 240.943939,87.470917 
	C245.354401,71.998566 235.171906,63.925087 222.691711,60.958027 
	C218.647263,59.996498 214.561081,58.894581 210.781967,57.210594 
	C205.730133,54.959476 205.476273,50.497990 210.103226,47.524967 
	C211.638382,46.538563 213.849854,45.876904 215.616180,46.107605 
	C222.286880,46.978905 228.901688,48.278130 236.003494,49.497192 
	C237.195068,45.709305 238.519577,41.498798 240.012924,36.751633 
	C228.802521,33.321991 218.014313,30.587393 206.368164,32.903912 
	C197.900467,34.588215 189.768570,41.613415 189.001816,49.024822 
	C187.757904,61.048565 191.670197,67.338936 202.750031,71.003876 
	C208.533875,72.917038 214.481979,74.411034 220.105560,76.707382 
	C224.802200,78.625229 225.338501,83.421654 221.153320,86.106575 
	C218.575424,87.760361 215.024445,89.057350 212.093964,88.752098 
	C206.550949,88.174713 201.095886,86.483040 195.692963,84.943253 
	C192.936600,84.157707 191.734390,83.946091 190.680954,87.479530 
	C187.851898,96.968498 187.538452,96.875046 197.527084,100.005974 
M278.000000,17.659084 
	C277.843018,16.022882 278.799927,13.863012 275.610565,13.958008 
	C270.174652,14.119916 264.730438,14.002616 258.876465,14.002616 
	C258.876465,20.926884 258.876465,27.337971 258.876465,34.156425 
	C254.712967,34.156425 250.963913,34.156425 247.305847,34.156425 
	C247.305847,38.992294 247.305847,43.394726 247.305847,48.217449 
	C251.349625,48.217449 255.090805,48.217449 259.000000,48.217449 
	C259.000000,59.125568 258.784332,69.611725 259.065918,80.084518 
	C259.305847,89.006859 262.465332,96.363205 271.469940,100.113022 
	C280.124359,103.717010 288.680084,101.923592 297.695526,100.622444 
	C296.847656,95.457977 296.088135,90.831879 295.347412,86.320068 
	C292.818878,86.771889 290.925934,87.000122 289.090485,87.458488 
	C283.254242,88.915916 278.024963,84.869087 278.003448,78.785522 
	C277.986359,73.954185 278.000000,69.122742 278.000000,64.291344 
	C278.000000,58.877045 278.000000,53.462749 278.000000,47.826412 
	C284.372162,47.826412 289.989929,47.826412 295.770477,47.826412 
	C295.770477,43.169495 295.770477,38.769665 295.770477,33.940781 
	C289.812408,33.940781 284.068878,33.940781 278.000000,33.940781 
	C278.000000,28.553911 278.000000,23.590187 278.000000,17.659084 
M130.757187,34.077831 
	C130.407791,38.581852 130.058380,43.085869 129.672867,48.055458 
	C134.516922,48.055458 138.598236,48.055458 143.000000,48.055458 
	C143.000000,59.771320 143.491653,71.090515 142.833008,82.342377 
	C142.367615,90.292915 149.395859,99.999069 156.581284,100.798096 
	C164.574081,101.686913 172.741913,101.001656 181.195068,101.001656 
	C180.236923,95.650452 179.384659,90.890572 178.531921,86.130608 
	C176.328430,86.599075 174.109833,87.006699 171.924530,87.548523 
	C167.185806,88.723457 161.261871,85.259346 161.113556,80.468117 
	C160.780899,69.722267 161.009369,58.959042 161.009369,47.785782 
	C167.352600,47.785782 173.092392,47.785782 178.663116,47.785782 
	C178.663116,42.948124 178.663116,38.548454 178.663116,33.729050 
	C172.588333,33.729050 166.846359,33.729050 160.701385,33.729050 
	C160.701385,26.893425 160.701385,20.486794 160.701385,14.201332 
	C154.654144,14.201332 149.038116,14.201332 143.000122,14.201332 
	C143.000122,20.795612 143.000122,27.207073 143.000122,34.007244 
	C138.960083,34.007244 135.336807,34.007244 130.757187,34.077831 
M119.000000,78.499954 
	C119.000000,63.750420 119.000000,49.000881 119.000000,34.296722 
	C112.691681,34.296722 106.962204,34.296722 101.286255,34.296722 
	C101.286255,56.644337 101.286255,78.694038 101.286255,100.703476 
	C107.306686,100.703476 113.037018,100.703476 119.000000,100.703476 
	C119.000000,93.439552 119.000000,86.469711 119.000000,78.499954 
M533.000061,129.353180 
	C533.810791,130.567337 534.603760,132.825348 535.434937,132.839493 
	C548.501343,133.062042 561.572693,132.995636 574.722534,132.995636 
	C574.722534,128.092834 574.722534,123.706688 574.722534,119.265533 
	C560.744324,119.265533 547.045105,119.265533 533.000000,119.265533 
	C533.000000,122.483704 533.000000,125.440941 533.000061,129.353180 
M119.697105,9.181015 
	C117.077141,5.291321 113.312973,4.656202 108.924721,4.918407 
	C105.189537,5.141591 101.910004,5.885190 100.808655,9.795444 
	C99.631256,13.975729 98.499489,18.445332 101.826462,22.247780 
	C105.423340,26.358709 112.344322,27.444250 116.517998,24.812822 
	C120.968567,22.006819 122.343697,16.122780 119.697105,9.181015 
z"/>
<path fill="#149F49" opacity="1.000000" stroke="none" 
	d="
M14.057062,119.000000 
	C176.140381,119.000000 337.732758,119.000000 499.662537,119.000000 
	C499.662537,123.595261 499.662537,127.990479 499.662537,132.695831 
	C335.376373,132.695831 171.022537,132.695831 6.334261,132.695831 
	C6.334261,128.399475 6.334261,124.005592 6.334261,119.000000 
	C8.698727,119.000000 11.132432,119.000000 14.057062,119.000000 
z"/>
<path fill="#282828" opacity="1.000000" stroke="none" 
	d="
M42.999611,101.000000 
	C30.527098,101.000000 18.554464,101.000000 6.291628,101.000000 
	C6.291628,96.678467 6.291628,92.592072 6.291628,88.475586 
	C16.028969,85.260239 19.406902,80.867332 18.999859,71.878677 
	C18.717028,65.632996 14.203811,61.234467 6.118730,59.387833 
	C6.118730,55.765812 6.118730,52.124851 6.118730,48.344849 
	C11.373096,47.175690 15.889282,45.010738 17.981489,39.676865 
	C20.527763,33.185387 18.180605,26.627958 11.374535,24.061539 
	C6.610888,22.265270 5.268892,19.649227 5.956437,15.068050 
	C6.223189,13.290650 6.000000,11.439719 6.000000,9.253311 
	C7.602800,9.162477 9.036067,9.012254 10.469503,9.010633 
	C25.631454,8.993491 40.795864,8.837831 55.954422,9.065408 
	C64.072159,9.187281 72.011353,11.434849 77.586655,17.374588 
	C85.203499,25.489313 86.710876,35.851078 80.343834,46.028427 
	C78.697258,48.660374 76.069221,50.678303 73.878151,52.992935 
	C87.263977,62.559975 91.051514,75.124580 84.036705,87.459145 
	C78.695061,96.851707 69.623177,100.160255 59.489052,100.929001 
	C54.187908,101.331131 48.831139,100.999977 42.999611,101.000000 
M59.012440,61.024292 
	C50.405495,60.550095 41.798546,60.075897 33.310837,59.608265 
	C33.310837,69.381271 33.310837,78.090652 33.310837,86.999176 
	C40.571224,86.999176 47.623325,87.706932 54.434753,86.732445 
	C58.489307,86.152374 63.130775,83.768425 65.798447,80.705963 
	C70.466248,75.347374 69.775375,65.408401 59.012440,61.024292 
M49.190472,47.999744 
	C50.767708,47.667912 52.330814,47.223007 53.924633,47.023911 
	C60.661442,46.182365 65.577423,41.662277 65.974258,35.849575 
	C66.316193,30.841225 62.333412,25.249973 55.902767,24.136858 
	C48.548317,22.863838 40.942745,23.041576 33.209991,22.574678 
	C33.209991,31.476135 33.209991,39.532120 33.209991,47.999985 
	C38.355804,47.999985 43.302860,47.999985 49.190472,47.999744 
z"/>
<path fill="#282828" opacity="1.000000" stroke="none" 
	d="
M446.169678,61.607140 
	C445.996490,74.699448 445.966492,87.363396 445.926331,100.027321 
	C445.925903,100.166962 445.793182,100.306175 445.581116,100.722794 
	C439.992981,100.722794 434.259094,100.722794 428.000000,100.722794 
	C428.000000,87.090630 428.022186,73.485237 427.990021,59.879974 
	C427.975281,53.644848 425.199707,49.953899 419.212952,47.987152 
	C412.439789,45.762051 403.565643,50.562542 402.063080,57.474560 
	C401.410614,60.476170 401.078033,63.600880 401.046295,66.674294 
	C400.929596,77.964478 401.000000,89.256592 401.000000,100.772095 
	C394.891174,100.772095 389.157440,100.772095 383.211334,100.772095 
	C383.211334,78.645126 383.211334,56.697342 383.211334,34.374557 
	C387.796967,34.374557 392.535614,34.374557 397.705597,34.374557 
	C398.239838,36.303505 398.864624,38.559437 399.688019,41.532410 
	C405.873077,35.143429 413.146454,31.653637 421.863129,32.021301 
	C430.394775,32.381168 437.543335,35.523746 442.325470,43.131405 
	C449.271057,35.587765 457.576141,31.691837 467.638489,32.014160 
	C481.562500,32.460182 491.745880,43.355038 491.160187,55.988682 
	C490.475098,70.765846 491.000000,85.599113 491.000000,100.703407 
	C485.033112,100.703407 479.299408,100.703407 473.000000,100.703407 
	C473.000000,87.302147 473.151001,73.865349 472.879700,60.437088 
	C472.821503,57.557125 472.073853,53.743996 470.153687,52.072624 
	C467.333557,49.617901 463.118195,47.313747 459.595001,47.451202 
	C453.963959,47.670891 449.254852,50.984081 447.461334,57.028893 
	C447.053101,58.404724 446.693909,59.795097 446.169678,61.607140 
z"/>
<path fill="#282828" opacity="1.000000" stroke="none" 
	d="
M533.203979,100.045914 
	C530.366577,98.468796 527.923584,96.959991 525.012146,95.161880 
	C525.012146,107.877342 525.012146,120.230209 525.012146,132.786621 
	C518.864197,132.786621 513.134705,132.786621 507.202606,132.786621 
	C507.202606,99.865807 507.202606,67.158279 507.202606,34.225334 
	C511.977142,34.225334 516.583801,34.225334 521.628540,34.225334 
	C522.192444,36.185551 522.823242,38.378307 523.512756,40.775120 
	C532.118774,33.026073 541.994446,29.815004 553.216187,33.150009 
	C565.993713,36.947411 573.129700,46.461384 574.766479,60.173965 
	C575.954468,70.126701 575.716675,80.266815 569.366394,89.372452 
	C561.308777,100.926361 548.368896,105.184052 533.203979,100.045914 
M545.804871,86.711052 
	C558.074524,79.682289 560.232788,64.188469 552.270081,52.860146 
	C545.797302,43.651592 529.706360,45.118179 527.070984,55.330952 
	C525.708313,60.611267 525.567139,66.219604 525.018616,71.694229 
	C524.133484,80.528267 534.064880,91.204163 545.804871,86.711052 
z"/>
<path fill="#282828" opacity="1.000000" stroke="none" 
	d="
M342.783630,47.949333 
	C335.051300,44.118259 327.724213,46.161392 320.555878,48.237217 
	C312.994598,50.426853 312.498901,50.378990 310.021454,42.945560 
	C309.513306,41.420891 308.928040,39.921921 308.099304,37.644424 
	C312.941498,36.286674 317.933899,34.647709 323.037476,33.505646 
	C333.596527,31.142769 344.133209,30.681004 353.867401,36.450558 
	C360.690338,40.494541 364.950073,46.419544 364.990326,54.716919 
	C365.033203,63.549549 365.015259,72.382584 364.993164,81.215370 
	C364.983032,85.264946 365.759583,88.327789 370.961914,88.204956 
	C371.942261,88.181808 373.637177,90.671837 373.860992,92.172417 
	C374.317749,95.234818 373.997803,98.413063 373.997803,101.914192 
	C365.224731,101.613884 355.817383,104.862823 350.740448,94.327782 
	C339.835419,102.895416 328.068329,104.983482 315.372559,99.010956 
	C308.200287,95.636879 305.125824,89.653519 304.944397,81.788231 
	C304.750793,73.395760 307.689575,67.084305 315.258759,62.922825 
	C325.573364,57.251926 336.474426,59.152809 347.741028,59.341534 
	C348.824707,54.947300 347.126801,51.093567 342.783630,47.949333 
M328.748077,88.223236 
	C339.560303,91.274750 344.582581,85.876015 347.681091,78.672882 
	C350.172729,72.880539 347.896454,70.029335 341.639343,70.001656 
	C339.321747,69.991409 337.003815,69.977303 334.686523,70.004646 
	C329.550232,70.065239 324.527283,73.523186 322.964233,77.862885 
	C321.099945,83.039139 324.710602,85.407707 328.748077,88.223236 
z"/>
<path fill="#282828" opacity="1.000000" stroke="none" 
	d="
M197.102707,100.001595 
	C187.538452,96.875046 187.851898,96.968498 190.680954,87.479530 
	C191.734390,83.946091 192.936600,84.157707 195.692963,84.943253 
	C201.095886,86.483040 206.550949,88.174713 212.093964,88.752098 
	C215.024445,89.057350 218.575424,87.760361 221.153320,86.106575 
	C225.338501,83.421654 224.802200,78.625229 220.105560,76.707382 
	C214.481979,74.411034 208.533875,72.917038 202.750031,71.003876 
	C191.670197,67.338936 187.757904,61.048565 189.001816,49.024822 
	C189.768570,41.613415 197.900467,34.588215 206.368164,32.903912 
	C218.014313,30.587393 228.802521,33.321991 240.012924,36.751633 
	C238.519577,41.498798 237.195068,45.709305 236.003494,49.497192 
	C228.901688,48.278130 222.286880,46.978905 215.616180,46.107605 
	C213.849854,45.876904 211.638382,46.538563 210.103226,47.524967 
	C205.476273,50.497990 205.730133,54.959476 210.781967,57.210594 
	C214.561081,58.894581 218.647263,59.996498 222.691711,60.958027 
	C235.171906,63.925087 245.354401,71.998566 240.943939,87.470917 
	C238.408203,96.366608 231.043320,100.766891 222.941208,101.624512 
	C214.620163,102.505310 206.010468,100.658890 197.102707,100.001595 
z"/>
<path fill="#282828" opacity="1.000000" stroke="none" 
	d="
M278.000000,18.142773 
	C278.000000,23.590187 278.000000,28.553911 278.000000,33.940781 
	C284.068878,33.940781 289.812408,33.940781 295.770477,33.940781 
	C295.770477,38.769665 295.770477,43.169495 295.770477,47.826412 
	C289.989929,47.826412 284.372162,47.826412 278.000000,47.826412 
	C278.000000,53.462749 278.000000,58.877045 278.000000,64.291344 
	C278.000000,69.122742 277.986359,73.954185 278.003448,78.785522 
	C278.024963,84.869087 283.254242,88.915916 289.090485,87.458488 
	C290.925934,87.000122 292.818878,86.771889 295.347412,86.320068 
	C296.088135,90.831879 296.847656,95.457977 297.695526,100.622444 
	C288.680084,101.923592 280.124359,103.717010 271.469940,100.113022 
	C262.465332,96.363205 259.305847,89.006859 259.065918,80.084518 
	C258.784332,69.611725 259.000000,59.125568 259.000000,48.217449 
	C255.090805,48.217449 251.349625,48.217449 247.305847,48.217449 
	C247.305847,43.394726 247.305847,38.992294 247.305847,34.156425 
	C250.963913,34.156425 254.712967,34.156425 258.876465,34.156425 
	C258.876465,27.337971 258.876465,20.926884 258.876465,14.002616 
	C264.730438,14.002616 270.174652,14.119916 275.610565,13.958008 
	C278.799927,13.863012 277.843018,16.022882 278.000000,18.142773 
z"/>
<path fill="#282828" opacity="1.000000" stroke="none" 
	d="
M131.235367,34.042538 
	C135.336807,34.007244 138.960083,34.007244 143.000122,34.007244 
	C143.000122,27.207073 143.000122,20.795612 143.000122,14.201332 
	C149.038116,14.201332 154.654144,14.201332 160.701385,14.201332 
	C160.701385,20.486794 160.701385,26.893425 160.701385,33.729050 
	C166.846359,33.729050 172.588333,33.729050 178.663116,33.729050 
	C178.663116,38.548454 178.663116,42.948124 178.663116,47.785782 
	C173.092392,47.785782 167.352600,47.785782 161.009369,47.785782 
	C161.009369,58.959042 160.780899,69.722267 161.113556,80.468117 
	C161.261871,85.259346 167.185806,88.723457 171.924530,87.548523 
	C174.109833,87.006699 176.328430,86.599075 178.532166,86.130653 
	C179.384659,90.890572 180.236923,95.650452 181.195068,101.001656 
	C172.741913,101.001656 164.574081,101.686913 156.581284,100.798096 
	C149.395859,99.999069 142.367615,90.292915 142.833008,82.342377 
	C143.491653,71.090515 143.000000,59.771320 143.000000,48.055458 
	C138.598236,48.055458 134.516922,48.055458 129.672867,48.055458 
	C130.058380,43.085869 130.407791,38.581852 131.235367,34.042538 
z"/>
<path fill="#282828" opacity="1.000000" stroke="none" 
	d="
M119.000000,78.999916 
	C119.000000,86.469711 119.000000,93.439552 119.000000,100.703476 
	C113.037018,100.703476 107.306686,100.703476 101.286255,100.703476 
	C101.286255,78.694038 101.286255,56.644337 101.286255,34.296722 
	C106.962204,34.296722 112.691681,34.296722 119.000000,34.296722 
	C119.000000,49.000881 119.000000,63.750420 119.000000,78.999916 
z"/>
<path fill="#149F49" opacity="1.000000" stroke="none" 
	d="
M533.000000,128.875671 
	C533.000000,125.440941 533.000000,122.483704 533.000000,119.265533 
	C547.045105,119.265533 560.744324,119.265533 574.722534,119.265533 
	C574.722534,123.706688 574.722534,128.092834 574.722534,132.995636 
	C561.572693,132.995636 548.501343,133.062042 535.434937,132.839493 
	C534.603760,132.825348 533.810791,130.567337 533.000000,128.875671 
z"/>
<path fill="#282828" opacity="1.000000" stroke="none" 
	d="
M119.845398,9.560841 
	C122.343697,16.122780 120.968567,22.006819 116.517998,24.812822 
	C112.344322,27.444250 105.423340,26.358709 101.826462,22.247780 
	C98.499489,18.445332 99.631256,13.975729 100.808655,9.795444 
	C101.910004,5.885190 105.189537,5.141591 108.924721,4.918407 
	C113.312973,4.656202 117.077141,5.291321 119.845398,9.560841 
z"/>
<path fill="#FFFFFF" opacity="1.000000" stroke="none" 
	d="
M59.403572,61.153748 
	C69.775375,65.408401 70.466248,75.347374 65.798447,80.705963 
	C63.130775,83.768425 58.489307,86.152374 54.434753,86.732445 
	C47.623325,87.706932 40.571224,86.999176 33.310837,86.999176 
	C33.310837,78.090652 33.310837,69.381271 33.310837,59.608265 
	C41.798546,60.075897 50.405495,60.550095 59.403572,61.153748 
z"/>
<path fill="#FFFFFF" opacity="1.000000" stroke="none" 
	d="
M48.720192,47.999863 
	C43.302860,47.999985 38.355804,47.999985 33.209991,47.999985 
	C33.209991,39.532120 33.209991,31.476135 33.209991,22.574678 
	C40.942745,23.041576 48.548317,22.863838 55.902767,24.136858 
	C62.333412,25.249973 66.316193,30.841225 65.974258,35.849575 
	C65.577423,41.662277 60.661442,46.182365 53.924633,47.023911 
	C52.330814,47.223007 50.767708,47.667912 48.720192,47.999863 
z"/>
<path fill="#FFFFFF" opacity="1.000000" stroke="none" 
	d="
M545.426208,86.843323 
	C534.064880,91.204163 524.133484,80.528267 525.018616,71.694229 
	C525.567139,66.219604 525.708313,60.611267 527.070984,55.330952 
	C529.706360,45.118179 545.797302,43.651592 552.270081,52.860146 
	C560.232788,64.188469 558.074524,79.682289 545.426208,86.843323 
z"/>
<path fill="#FFFFFF" opacity="1.000000" stroke="none" 
	d="
M328.358063,88.111115 
	C324.710602,85.407707 321.099945,83.039139 322.964233,77.862885 
	C324.527283,73.523186 329.550232,70.065239 334.686523,70.004646 
	C337.003815,69.977303 339.321747,69.991409 341.639343,70.001656 
	C347.896454,70.029335 350.172729,72.880539 347.681091,78.672882 
	C344.582581,85.876015 339.560303,91.274750 328.358063,88.111115 
z"/>
</svg>