<svg version="1.1" id="Layer_1" xmlns="http://www.w3.org/2000/svg" xmlns:xlink="http://www.w3.org/1999/xlink" x="0px" y="0px"
	 width="100%" viewBox="0 0 252 65" enable-background="new 0 0 252 65" xml:space="preserve">
<path fill="#000000" opacity="1.000000" stroke="none" 
	d="
M1.000000,15.000000 
	C1.000000,10.339905 1.000000,5.679810 1.000000,1.062355 
	C85.000023,1.062355 169.000031,1.062355 253.000000,1.062355 
	C253.000000,15.770700 253.000000,30.416693 252.672470,45.528099 
	C251.239075,44.738613 249.375977,43.592583 249.176804,42.207306 
	C248.683075,38.773388 249.662720,35.018303 248.704193,31.792242 
	C247.801941,28.755547 245.709564,24.775049 243.176544,23.849968 
	C240.037643,22.703602 235.768600,23.832237 232.276871,24.912533 
	C231.042114,25.294540 230.657516,28.424442 229.336929,31.629381 
	C233.387680,30.243311 235.663864,29.004105 238.016602,28.835918 
	C239.379211,28.738514 240.865067,30.365187 242.295456,31.215969 
	C241.468033,32.428150 240.897720,34.054428 239.757294,34.762505 
	C237.668167,36.059628 235.086746,36.562050 232.992508,37.853153 
	C229.601837,39.943520 229.124435,43.673096 230.574417,46.677624 
	C231.485214,48.564915 234.577423,50.318054 236.803726,50.469078 
	C242.167191,50.832920 247.596970,50.219357 253.000000,50.000000 
	C253.000000,55.325127 253.000000,60.650253 253.000000,65.956604 
	C168.999985,65.956604 84.999985,65.956604 1.000000,65.956604 
	C1.000000,60.255272 1.000000,54.597347 1.375763,48.529118 
	C9.535944,52.880836 14.836008,48.113281 20.296597,42.424946 
	C28.194729,54.007412 36.256550,53.120155 43.852211,42.537800 
	C48.912300,47.136078 53.642292,53.861511 59.889103,47.818836 
	C65.841209,42.061226 59.950943,36.753941 56.077637,32.113411 
	C59.217758,26.715172 68.707031,22.718615 61.352642,15.380647 
	C54.367905,8.411502 49.345760,16.706171 43.995895,19.811289 
	C32.807617,11.465829 32.807617,11.465829 19.840784,19.672754 
	C9.095713,11.783099 9.095713,11.783099 1.000000,15.000000 
M223.390137,26.235886 
	C221.889160,25.250511 220.012985,23.116194 218.947449,23.464176 
	C211.413376,25.924612 203.900131,23.232893 196.419479,23.838987 
	C195.069778,23.948343 193.604462,24.029417 192.348770,23.631054 
	C188.928864,22.546118 187.129883,23.627329 187.082458,27.203192 
	C187.003082,33.190193 186.856201,39.188625 187.166077,45.160015 
	C187.246078,46.701569 188.921219,48.160339 189.863617,49.657135 
	C190.898865,48.085033 192.602295,46.603977 192.831467,44.922039 
	C193.321671,41.324482 192.922958,37.615990 193.125824,33.966133 
	C193.316132,30.542368 195.119232,28.196589 198.743118,28.292933 
	C202.211304,28.385139 202.920380,31.043272 202.953781,33.942158 
	C202.994034,37.434975 202.659134,40.977459 203.155380,44.401527 
	C203.424347,46.257442 205.083679,47.911858 206.115845,49.657169 
	C207.068863,48.001007 208.548523,46.435604 208.853180,44.667709 
	C209.326828,41.919308 209.104767,39.028969 208.989990,36.206413 
	C208.820496,32.037148 210.064575,28.480824 214.653198,28.429214 
	C219.383194,28.376020 219.539841,32.704208 219.876343,36.112953 
	C220.218353,39.577190 219.861725,43.113285 220.251251,46.568287 
	C220.376480,47.679047 221.900406,48.632107 222.784454,49.657307 
	C223.814377,48.609447 225.782196,47.504593 225.722549,46.522942 
	C225.324188,39.966923 224.493332,33.437187 223.390137,26.235886 
M132.844696,43.403210 
	C133.858322,44.705719 134.720184,46.171402 135.913300,47.280907 
	C139.892731,50.981514 146.709930,51.854595 151.795532,49.328720 
	C156.969635,46.758896 159.080139,42.442379 159.017975,36.726177 
	C158.955170,30.950735 156.568817,26.696121 151.285904,24.481121 
	C146.022949,22.274479 140.723495,22.735506 136.261108,26.435310 
	C131.007507,30.791119 130.348892,36.503624 132.844696,43.403210 
M112.998886,41.444569 
	C112.767120,38.139954 112.893303,34.761730 112.231903,31.545465 
	C110.671715,23.958525 107.247574,22.012356 99.665482,23.669693 
	C98.321419,23.963490 96.775909,23.826090 95.421989,23.490345 
	C91.712273,22.570412 90.025032,23.950211 90.036697,27.697269 
	C90.054840,33.523735 89.844490,39.361092 90.167084,45.169613 
	C90.252678,46.710903 91.931412,48.163708 92.878662,49.657139 
	C93.909042,48.078243 95.612404,46.587410 95.832886,44.902534 
	C96.326256,41.132130 95.579506,37.161518 96.339676,33.479271 
	C96.745491,31.513510 99.049629,28.883463 100.838440,28.582489 
	C102.360329,28.326427 105.331093,30.641729 105.951675,32.416897 
	C107.008278,35.439323 106.587532,38.949741 107.044434,42.219223 
	C107.416275,44.880051 105.517632,49.340714 109.927170,49.430511 
	C114.477570,49.523174 112.403252,44.987385 112.998886,41.444569 
M132.791489,12.942658 
	C130.911057,8.464263 126.098831,7.631557 122.877342,12.035175 
	C119.954849,16.030083 118.322456,20.989910 116.308594,25.606037 
	C115.999153,26.315342 116.675911,27.470356 116.934212,28.408880 
	C117.610031,30.864361 118.639954,33.277737 118.912506,35.775150 
	C119.270973,39.059799 118.764374,42.444801 119.191414,45.713264 
	C119.375557,47.122654 120.967461,48.348110 121.919846,49.657127 
	C122.923172,48.401489 124.607178,47.238876 124.794029,45.871655 
	C125.240067,42.607929 124.966179,39.247528 125.009216,35.926506 
	C125.047508,32.971889 124.606125,29.935411 128.323090,28.347265 
	C128.868362,28.114281 128.889648,24.320173 127.947617,23.373066 
	C124.965591,20.374931 125.344200,16.921980 129.353668,15.240260 
	C130.498016,14.760268 131.582458,14.137376 132.791489,12.942658 
M166.710175,23.538391 
	C166.165695,24.679386 165.179077,25.809368 165.150330,26.963209 
	C164.993408,33.264484 164.906143,39.579514 165.205368,45.870289 
	C165.267426,47.174953 167.064682,48.397079 168.062241,49.657261 
	C169.020340,48.355911 170.623611,47.139652 170.808716,45.736343 
	C171.261353,42.304379 170.842468,38.765450 171.170792,35.307209 
	C171.649796,30.261816 174.312943,28.623646 179.216873,29.478703 
	C180.435989,29.691271 181.878693,28.621588 183.218613,28.141293 
	C182.552139,26.696020 181.991501,24.084085 181.200439,24.012320 
	C178.167191,23.737137 175.059967,24.277328 170.869476,24.598362 
	C170.577606,24.490192 168.990067,23.901861 166.710175,23.538391 
M81.806320,24.000479 
	C78.786942,22.398581 77.239159,23.797550 77.157745,26.723194 
	C76.977554,33.199341 76.956154,39.689365 77.216408,46.159798 
	C77.264648,47.359093 78.938240,48.493011 79.861679,49.657108 
	C80.868202,48.584774 82.730217,47.522552 82.743027,46.438480 
	C82.829056,39.159054 82.522079,31.874979 81.806320,24.000479 
M82.777916,17.590710 
	C84.019783,14.958568 83.016968,13.296513 80.299278,13.417777 
	C79.285202,13.463026 78.352333,15.328371 77.382439,16.363794 
	C79.034706,16.950447 80.686974,17.537098 82.777916,17.590710 
z"/>
<path fill="#1A3F1D" opacity="1.000000" stroke="none" 
	d="
M1.000000,15.458069 
	C9.095713,11.783099 9.095713,11.783099 19.840784,19.672754 
	C32.807617,11.465829 32.807617,11.465829 43.995895,19.811289 
	C49.345760,16.706171 54.367905,8.411502 61.352642,15.380647 
	C68.707031,22.718615 59.217758,26.715172 56.077637,32.113411 
	C59.950943,36.753941 65.841209,42.061226 59.889103,47.818836 
	C53.642292,53.861511 48.912300,47.136078 43.852211,42.537800 
	C36.256550,53.120155 28.194729,54.007412 20.296597,42.424946 
	C14.836008,48.113281 9.535944,52.880836 1.375763,48.059410 
	C1.000000,44.638714 1.000000,41.277424 1.336120,37.412678 
	C3.432129,35.075989 5.192018,33.242764 6.951906,31.409534 
	C4.967937,29.606358 2.983968,27.803179 1.000000,26.000000 
	C1.000000,22.638712 1.000000,19.277426 1.000000,15.458069 
z"/>
<path fill="#1A3F1D" opacity="1.000000" stroke="none" 
	d="
M253.000000,49.600006 
	C247.596970,50.219357 242.167191,50.832920 236.803726,50.469078 
	C234.577423,50.318054 231.485214,48.564915 230.574417,46.677624 
	C229.124435,43.673096 229.601837,39.943520 232.992508,37.853153 
	C235.086746,36.562050 237.668167,36.059628 239.757294,34.762505 
	C240.897720,34.054428 241.468033,32.428150 242.295456,31.215969 
	C240.865067,30.365187 239.379211,28.738514 238.016602,28.835918 
	C235.663864,29.004105 233.387680,30.243311 229.336929,31.629381 
	C230.657516,28.424442 231.042114,25.294540 232.276871,24.912533 
	C235.768600,23.832237 240.037643,22.703602 243.176544,23.849968 
	C245.709564,24.775049 247.801941,28.755547 248.704193,31.792242 
	C249.662720,35.018303 248.683075,38.773388 249.176804,42.207306 
	C249.375977,43.592583 251.239075,44.738613 252.672470,45.996758 
	C253.000000,47.066669 253.000000,48.133339 253.000000,49.600006 
M236.673981,44.629967 
	C238.223724,44.945831 240.912109,45.874130 241.128067,45.472599 
	C242.115250,43.637199 242.409103,41.428879 243.166046,38.536938 
	C238.801636,39.502678 236.034195,40.053589 236.673981,44.629967 
z"/>
<path fill="#000000" opacity="1.000000" stroke="none" 
	d="
M1.000000,26.458069 
	C2.983968,27.803179 4.967937,29.606358 6.951906,31.409534 
	C5.192018,33.242764 3.432129,35.075989 1.336120,36.954609 
	C1.000000,33.638714 1.000000,30.277426 1.000000,26.458069 
z"/>
<path fill="#1A3F1D" opacity="1.000000" stroke="none" 
	d="
M223.596512,26.567402 
	C224.493332,33.437187 225.324188,39.966923 225.722549,46.522942 
	C225.782196,47.504593 223.814377,48.609447 222.784454,49.657310 
	C221.900406,48.632107 220.376480,47.679047 220.251251,46.568287 
	C219.861725,43.113285 220.218353,39.577190 219.876343,36.112953 
	C219.539841,32.704208 219.383194,28.376020 214.653198,28.429214 
	C210.064575,28.480824 208.820496,32.037148 208.989990,36.206413 
	C209.104767,39.028969 209.326828,41.919308 208.853180,44.667709 
	C208.548523,46.435604 207.068863,48.001007 206.115845,49.657169 
	C205.083679,47.911858 203.424347,46.257442 203.155380,44.401527 
	C202.659134,40.977459 202.994034,37.434975 202.953781,33.942158 
	C202.920380,31.043272 202.211304,28.385139 198.743118,28.292933 
	C195.119232,28.196589 193.316132,30.542368 193.125824,33.966133 
	C192.922958,37.615990 193.321671,41.324482 192.831467,44.922039 
	C192.602295,46.603977 190.898865,48.085033 189.863617,49.657135 
	C188.921219,48.160339 187.246078,46.701569 187.166077,45.160015 
	C186.856201,39.188625 187.003082,33.190193 187.082458,27.203192 
	C187.129883,23.627329 188.928864,22.546118 192.348770,23.631054 
	C193.604462,24.029417 195.069778,23.948343 196.419479,23.838987 
	C203.900131,23.232893 211.413376,25.924612 218.947449,23.464176 
	C220.012985,23.116194 221.889160,25.250511 223.596512,26.567402 
z"/>
<path fill="#1A3F1D" opacity="1.000000" stroke="none" 
	d="
M132.671997,43.062149 
	C130.348892,36.503624 131.007507,30.791119 136.261108,26.435310 
	C140.723495,22.735506 146.022949,22.274479 151.285904,24.481121 
	C156.568817,26.696121 158.955170,30.950735 159.017975,36.726177 
	C159.080139,42.442379 156.969635,46.758896 151.795532,49.328720 
	C146.709930,51.854595 139.892731,50.981514 135.913300,47.280907 
	C134.720184,46.171402 133.858322,44.705719 132.671997,43.062149 
M137.884277,35.216393 
	C137.459854,42.040035 142.032532,46.455929 147.602524,44.468754 
	C151.271301,43.159859 153.167557,40.583302 152.976105,36.457184 
	C152.790405,32.455025 150.478958,30.264206 147.038849,29.402189 
	C142.676483,28.309071 139.653091,30.321918 137.884277,35.216393 
z"/>
<path fill="#1A3F1D" opacity="1.000000" stroke="none" 
	d="
M112.998169,41.912006 
	C112.403252,44.987385 114.477570,49.523174 109.927170,49.430511 
	C105.517632,49.340714 107.416275,44.880051 107.044434,42.219223 
	C106.587532,38.949741 107.008278,35.439323 105.951675,32.416897 
	C105.331093,30.641729 102.360329,28.326427 100.838440,28.582489 
	C99.049629,28.883463 96.745491,31.513510 96.339676,33.479271 
	C95.579506,37.161518 96.326256,41.132130 95.832886,44.902534 
	C95.612404,46.587410 93.909042,48.078243 92.878662,49.657139 
	C91.931412,48.163708 90.252678,46.710903 90.167084,45.169613 
	C89.844490,39.361092 90.054840,33.523735 90.036697,27.697269 
	C90.025032,23.950211 91.712273,22.570412 95.421989,23.490345 
	C96.775909,23.826090 98.321419,23.963490 99.665482,23.669693 
	C107.247574,22.012356 110.671715,23.958525 112.231903,31.545465 
	C112.893303,34.761730 112.767120,38.139954 112.998169,41.912006 
z"/>
<path fill="#1A3F1D" opacity="1.000000" stroke="none" 
	d="
M132.742920,13.261335 
	C131.582458,14.137376 130.498016,14.760268 129.353668,15.240260 
	C125.344200,16.921980 124.965591,20.374931 127.947617,23.373066 
	C128.889648,24.320173 128.868362,28.114281 128.323090,28.347265 
	C124.606125,29.935411 125.047508,32.971889 125.009216,35.926506 
	C124.966179,39.247528 125.240067,42.607929 124.794029,45.871655 
	C124.607178,47.238876 122.923172,48.401489 121.919846,49.657127 
	C120.967461,48.348110 119.375557,47.122654 119.191414,45.713264 
	C118.764374,42.444801 119.270973,39.059799 118.912506,35.775150 
	C118.639954,33.277737 117.610031,30.864361 116.934212,28.408880 
	C116.675911,27.470356 115.999153,26.315342 116.308594,25.606037 
	C118.322456,20.989910 119.954849,16.030083 122.877342,12.035175 
	C126.098831,7.631557 130.911057,8.464263 132.742920,13.261335 
z"/>
<path fill="#1A3F1D" opacity="1.000000" stroke="none" 
	d="
M167.056351,23.425961 
	C168.990067,23.901861 170.577606,24.490192 170.869476,24.598362 
	C175.059967,24.277328 178.167191,23.737137 181.200439,24.012320 
	C181.991501,24.084085 182.552139,26.696020 183.218628,28.141289 
	C181.878693,28.621588 180.435989,29.691271 179.216873,29.478703 
	C174.312943,28.623646 171.649796,30.261816 171.170792,35.307209 
	C170.842468,38.765450 171.261353,42.304379 170.808716,45.736343 
	C170.623611,47.139652 169.020340,48.355911 168.062225,49.657257 
	C167.064682,48.397079 165.267426,47.174953 165.205368,45.870289 
	C164.906143,39.579514 164.993408,33.264484 165.150330,26.963209 
	C165.179077,25.809368 166.165695,24.679386 167.056351,23.425961 
z"/>
<path fill="#1A3F1D" opacity="1.000000" stroke="none" 
	d="
M82.074409,24.296444 
	C82.522079,31.874979 82.829056,39.159054 82.743027,46.438480 
	C82.730217,47.522552 80.868202,48.584774 79.861679,49.657108 
	C78.938240,48.493011 77.264648,47.359093 77.216408,46.159798 
	C76.956154,39.689365 76.977554,33.199341 77.157745,26.723194 
	C77.239159,23.797550 78.786942,22.398581 82.074409,24.296444 
z"/>
<path fill="#1A3F1D" opacity="1.000000" stroke="none" 
	d="
M82.558578,17.857229 
	C80.686974,17.537098 79.034706,16.950447 77.382439,16.363794 
	C78.352333,15.328371 79.285202,13.463026 80.299278,13.417777 
	C83.016968,13.296513 84.019783,14.958568 82.558578,17.857229 
z"/>
<path fill="#000000" opacity="1.000000" stroke="none" 
	d="
M236.542725,44.310432 
	C236.034195,40.053589 238.801636,39.502678 243.166046,38.536938 
	C242.409103,41.428879 242.115250,43.637199 241.128067,45.472599 
	C240.912109,45.874130 238.223724,44.945831 236.542725,44.310432 
z"/>
<path fill="#000000" opacity="1.000000" stroke="none" 
	d="
M137.975769,34.857502 
	C139.653091,30.321918 142.676483,28.309071 147.038849,29.402189 
	C150.478958,30.264206 152.790405,32.455025 152.976105,36.457184 
	C153.167557,40.583302 151.271301,43.159859 147.602524,44.468754 
	C142.032532,46.455929 137.459854,42.040035 137.975769,34.857502 
z"/>
</svg>