<svg xmlns="http://www.w3.org/2000/svg" xmlns:xlink="http://www.w3.org/1999/xlink" width="500" zoomAndPan="magnify" viewBox="0 0 375 74.999997" height="100" preserveAspectRatio="xMidYMid meet" version="1.0"><defs><g/><clipPath id="733b39e2e0"><path d="M 0 21.332031 L 51.75 21.332031 L 51.75 55.082031 L 0 55.082031 Z M 0 21.332031 " clip-rule="nonzero"/></clipPath></defs><g clip-path="url(#733b39e2e0)"><path fill="#1f1e1e" d="M 37.023438 30.714844 C 39.085938 30.714844 40.960938 31.0625 42.648438 31.761719 C 43.246094 32.007812 43.804688 32.285156 44.335938 32.597656 C 43.890625 31.78125 43.351562 31.042969 42.726562 30.390625 C 41.777344 29.410156 40.597656 28.621094 39.210938 28.046875 C 37.835938 27.476562 36.265625 27.183594 34.546875 27.175781 L 24.757812 27.175781 L 26.3125 30.714844 Z M 6.601562 55.40625 L 10.390625 55.40625 L 13.90625 47.113281 L 12.078125 42.863281 Z M 51.878906 38.320312 C 51.878906 40.722656 51.457031 42.96875 50.617188 45.0625 C 49.773438 47.15625 48.578125 48.964844 47.035156 50.492188 C 45.492188 52.015625 43.648438 53.21875 41.511719 54.09375 C 39.757812 54.8125 37.859375 55.238281 35.820312 55.363281 C 35.375 55.394531 34.925781 55.40625 34.46875 55.40625 L 29.347656 55.40625 L 16.617188 25.777344 L 3.789062 55.40625 L 0 55.40625 L 14.929688 21.335938 L 18.394531 21.335938 L 31.777344 51.867188 L 34.464844 51.867188 C 36.527344 51.867188 38.402344 51.527344 40.089844 50.84375 C 41.78125 50.160156 43.210938 49.210938 44.382812 47.992188 C 45.554688 46.773438 46.460938 45.355469 47.101562 43.730469 C 47.742188 42.105469 48.0625 40.335938 48.0625 38.417969 C 48.0625 36.535156 47.742188 34.765625 47.101562 33.109375 C 46.460938 31.453125 45.554688 30.015625 44.382812 28.796875 C 43.210938 27.578125 41.78125 26.621094 40.089844 25.921875 C 38.402344 25.222656 36.527344 24.875 34.464844 24.875 L 23.75 24.875 L 22.199219 21.335938 L 34.46875 21.335938 C 37.027344 21.335938 39.375 21.765625 41.511719 22.625 C 43.648438 23.484375 45.492188 24.675781 47.035156 26.203125 C 48.578125 27.726562 49.773438 29.527344 50.617188 31.605469 C 51.457031 33.683594 51.878906 35.921875 51.878906 38.320312 " fill-opacity="1" fill-rule="nonzero"/></g><g fill="#1f1e1e" fill-opacity="1"><g transform="translate(61.644568, 45.106242)"><g><path d="M 2.203125 0 L 9.464844 -18.140625 L 7.832031 -18.140625 L 0.40625 0 Z M 17.191406 0 L 10.035156 -17.734375 L 9.195312 -15.558594 L 15.394531 0 Z M 12.105469 -6.363281 L 5.496094 -6.363281 L 4.921875 -4.867188 L 12.703125 -4.867188 Z M 12.105469 -6.363281 "/></g></g></g><g fill="#1f1e1e" fill-opacity="1"><g transform="translate(79.240533, 45.106242)"><g><path d="M 3.808594 -18.140625 L 2.257812 -18.140625 L 2.257812 0 L 3.808594 0 Z M 8.894531 -8.949219 L 4.460938 -8.949219 L 4.460938 -7.535156 L 9.058594 -7.535156 C 12.347656 -7.535156 14.496094 -10.144531 14.496094 -12.839844 C 14.496094 -15.9375 12.402344 -18.140625 9.058594 -18.140625 L 4.460938 -18.140625 L 4.460938 -16.726562 L 8.894531 -16.726562 C 11.207031 -16.726562 12.867188 -15.3125 12.867188 -12.839844 C 12.867188 -10.824219 11.179688 -8.949219 8.894531 -8.949219 Z M 8.894531 -8.949219 "/></g></g></g><g fill="#1f1e1e" fill-opacity="1"><g transform="translate(94.769575, 45.106242)"><g><path d="M 1.578125 -9.058594 C 1.578125 -3.835938 4.921875 0.164062 10.117188 0.300781 L 10.117188 -1.089844 C 5.875 -1.222656 3.210938 -4.570312 3.210938 -9.058594 C 3.210938 -13.546875 5.875 -16.890625 10.117188 -17.027344 L 10.117188 -18.414062 C 4.921875 -18.277344 1.578125 -14.253906 1.578125 -9.058594 Z M 19.203125 -9.058594 C 19.203125 -14.226562 15.859375 -18.222656 10.796875 -18.414062 L 10.796875 -17 C 14.90625 -16.808594 17.570312 -13.492188 17.570312 -9.058594 C 17.570312 -4.625 14.90625 -1.304688 10.796875 -1.089844 L 10.796875 0.300781 C 15.859375 0.109375 19.203125 -3.890625 19.203125 -9.058594 Z M 19.203125 -9.058594 "/></g></g></g><g fill="#1f1e1e" fill-opacity="1"><g transform="translate(115.54749, 45.106242)"><g><path d="M 3.453125 -13.679688 C 3.453125 -15.613281 5.222656 -16.972656 7.589844 -17.027344 L 7.589844 -18.441406 C 4.378906 -18.359375 1.796875 -16.511719 1.796875 -13.601562 C 1.796875 -10.308594 4.761719 -9.464844 7.589844 -8.675781 L 7.589844 -10.417969 C 5.359375 -11.042969 3.453125 -11.722656 3.453125 -13.679688 Z M 12.894531 -14.742188 L 13.925781 -15.882812 C 12.621094 -17.378906 10.714844 -18.304688 8.269531 -18.414062 L 8.269531 -17 C 10.0625 -16.890625 11.695312 -16.15625 12.894531 -14.742188 Z M 14.335938 -4.8125 C 14.335938 -8.460938 11.179688 -9.410156 8.269531 -10.226562 L 8.269531 -8.488281 C 10.609375 -7.804688 12.703125 -7.042969 12.703125 -4.707031 C 12.703125 -3.183594 11.695312 -1.195312 8.269531 -1.089844 L 8.269531 0.328125 C 12.867188 0.191406 14.335938 -2.53125 14.335938 -4.8125 Z M 2.257812 -3.726562 L 1.25 -2.558594 C 2.585938 -0.953125 4.734375 0.246094 7.589844 0.328125 L 7.589844 -1.089844 C 5.167969 -1.195312 3.371094 -2.449219 2.257812 -3.726562 Z M 2.257812 -3.726562 "/></g></g></g><g fill="#1f1e1e" fill-opacity="1"><g transform="translate(131.348502, 45.106242)"><g><path d="M 6.230469 -16.726562 L 6.230469 -18.140625 L 0.953125 -18.140625 L 0.953125 -16.726562 Z M 8.460938 -18.140625 L 6.910156 -18.140625 L 6.910156 0 L 8.460938 0 Z M 14.390625 -18.140625 L 9.140625 -18.140625 L 9.140625 -16.726562 L 14.390625 -16.726562 Z M 14.390625 -18.140625 "/></g></g></g><g fill="#1f1e1e" fill-opacity="1"><g transform="translate(146.687177, 45.106242)"><g><path d="M 1.578125 -9.058594 C 1.578125 -3.835938 4.921875 0.164062 10.117188 0.300781 L 10.117188 -1.089844 C 5.875 -1.222656 3.210938 -4.570312 3.210938 -9.058594 C 3.210938 -13.546875 5.875 -16.890625 10.117188 -17.027344 L 10.117188 -18.414062 C 4.921875 -18.277344 1.578125 -14.253906 1.578125 -9.058594 Z M 19.203125 -9.058594 C 19.203125 -14.226562 15.859375 -18.222656 10.796875 -18.414062 L 10.796875 -17 C 14.90625 -16.808594 17.570312 -13.492188 17.570312 -9.058594 C 17.570312 -4.625 14.90625 -1.304688 10.796875 -1.089844 L 10.796875 0.300781 C 15.859375 0.109375 19.203125 -3.890625 19.203125 -9.058594 Z M 19.203125 -9.058594 "/></g></g></g><g fill="#1f1e1e" fill-opacity="1"><g transform="translate(167.465092, 45.106242)"><g><path d="M 1.875 -18.140625 L 1.875 0 L 3.453125 0 L 3.453125 -18.140625 Z M 12.238281 -1.414062 L 4.132812 -1.414062 L 4.132812 0 L 12.238281 0 Z M 12.238281 -1.414062 "/></g></g></g><g fill="#1f1e1e" fill-opacity="1"><g transform="translate(180.628069, 45.106242)"><g><path d="M 3.453125 -13.679688 C 3.453125 -15.613281 5.222656 -16.972656 7.589844 -17.027344 L 7.589844 -18.441406 C 4.378906 -18.359375 1.796875 -16.511719 1.796875 -13.601562 C 1.796875 -10.308594 4.761719 -9.464844 7.589844 -8.675781 L 7.589844 -10.417969 C 5.359375 -11.042969 3.453125 -11.722656 3.453125 -13.679688 Z M 12.894531 -14.742188 L 13.925781 -15.882812 C 12.621094 -17.378906 10.714844 -18.304688 8.269531 -18.414062 L 8.269531 -17 C 10.0625 -16.890625 11.695312 -16.15625 12.894531 -14.742188 Z M 14.335938 -4.8125 C 14.335938 -8.460938 11.179688 -9.410156 8.269531 -10.226562 L 8.269531 -8.488281 C 10.609375 -7.804688 12.703125 -7.042969 12.703125 -4.707031 C 12.703125 -3.183594 11.695312 -1.195312 8.269531 -1.089844 L 8.269531 0.328125 C 12.867188 0.191406 14.335938 -2.53125 14.335938 -4.8125 Z M 2.257812 -3.726562 L 1.25 -2.558594 C 2.585938 -0.953125 4.734375 0.246094 7.589844 0.328125 L 7.589844 -1.089844 C 5.167969 -1.195312 3.371094 -2.449219 2.257812 -3.726562 Z M 2.257812 -3.726562 "/></g></g></g><g fill="#1f1e1e" fill-opacity="1"><g transform="translate(196.429081, 45.106242)"><g><path d="M 2.230469 -18.140625 L 2.230469 0 L 3.78125 0 L 3.78125 -18.140625 Z M 12.539062 -18.140625 L 4.460938 -9.246094 L 4.460938 -7.070312 L 14.523438 -18.140625 Z M 7.289062 -9.058594 L 6.28125 -8.023438 L 13.300781 0 L 15.285156 0 Z M 7.289062 -9.058594 "/></g></g></g><g fill="#1f1e1e" fill-opacity="1"><g transform="translate(212.366066, 45.106242)"><g><path d="M 2.257812 -18.140625 L 2.257812 0 L 3.808594 0 L 3.808594 -18.140625 Z M 2.257812 -18.140625 "/></g></g></g><g fill="#1f1e1e" fill-opacity="1"><g transform="translate(218.430824, 45.106242)"><g/></g></g><g fill="#1f1e1e" fill-opacity="1"><g transform="translate(225.474649, 45.106242)"><g><path d="M 2.257812 -18.140625 L 2.257812 0 L 3.808594 0 L 3.808594 -18.140625 Z M 8.050781 -1.414062 L 4.488281 -1.414062 L 4.488281 0 L 8.050781 0 C 13.679688 0 17.21875 -3.917969 17.21875 -9.246094 C 17.21875 -14.496094 13.601562 -18.140625 8.050781 -18.140625 L 4.488281 -18.140625 L 4.488281 -16.726562 L 8.050781 -16.726562 C 12.785156 -16.726562 15.585938 -13.519531 15.585938 -9.246094 C 15.585938 -4.515625 12.648438 -1.414062 8.050781 -1.414062 Z M 8.050781 -1.414062 "/></g></g></g><g fill="#1f1e1e" fill-opacity="1"><g transform="translate(244.29443, 45.106242)"><g><path d="M 3.78125 0 L 3.78125 -18.140625 L 2.230469 -18.140625 L 2.230469 0 Z M 12.894531 -12.839844 C 12.894531 -10.554688 11.289062 -8.949219 8.867188 -8.949219 L 4.460938 -8.949219 L 4.460938 -7.535156 L 9.003906 -7.535156 C 12.132812 -7.535156 14.523438 -9.519531 14.523438 -12.839844 C 14.523438 -16.15625 12.132812 -18.140625 9.003906 -18.140625 L 4.460938 -18.140625 L 4.460938 -16.726562 L 8.867188 -16.726562 C 11.289062 -16.726562 12.894531 -15.125 12.894531 -12.839844 Z M 8.132812 -6.9375 L 12.730469 0 L 14.742188 0 L 9.980469 -6.9375 Z M 8.132812 -6.9375 "/></g></g></g><g fill="#1f1e1e" fill-opacity="1"><g transform="translate(260.44898, 45.106242)"><g><path d="M 2.203125 0 L 9.464844 -18.140625 L 7.832031 -18.140625 L 0.40625 0 Z M 17.191406 0 L 10.035156 -17.734375 L 9.195312 -15.558594 L 15.394531 0 Z M 12.105469 -6.363281 L 5.496094 -6.363281 L 4.921875 -4.867188 L 12.703125 -4.867188 Z M 12.105469 -6.363281 "/></g></g></g><g fill="#1f1e1e" fill-opacity="1"><g transform="translate(278.044933, 45.106242)"><g><path d="M 16.046875 -14.390625 L 17.351562 -15.230469 C 15.832031 -17.164062 13.628906 -18.414062 10.769531 -18.441406 L 10.769531 -17.027344 C 12.921875 -17 14.90625 -15.964844 16.046875 -14.390625 Z M 3.183594 -9.058594 C 3.183594 -13.546875 6.148438 -16.671875 10.089844 -17 L 10.089844 -18.414062 C 5.25 -18.089844 1.550781 -14.390625 1.550781 -9.058594 C 1.550781 -3.726562 5.25 0 10.089844 0.300781 L 10.089844 -1.113281 C 6.148438 -1.441406 3.183594 -4.625 3.183594 -9.058594 Z M 17.597656 -7.859375 L 17.597656 -9.246094 L 10.089844 -9.246094 L 10.089844 -7.859375 Z M 17.597656 -2.636719 L 17.597656 -7.289062 L 16.101562 -7.289062 L 16.101562 -3.34375 C 14.988281 -1.957031 12.8125 -1.089844 10.769531 -1.089844 L 10.769531 0.328125 C 13.628906 0.300781 15.910156 -0.734375 17.597656 -2.636719 Z M 17.597656 -2.636719 "/></g></g></g><g fill="#1f1e1e" fill-opacity="1"><g transform="translate(297.381445, 45.106242)"><g><path d="M 2.203125 0 L 9.464844 -18.140625 L 7.832031 -18.140625 L 0.40625 0 Z M 17.191406 0 L 10.035156 -17.734375 L 9.195312 -15.558594 L 15.394531 0 Z M 12.105469 -6.363281 L 5.496094 -6.363281 L 4.921875 -4.867188 L 12.703125 -4.867188 Z M 12.105469 -6.363281 "/></g></g></g><g fill="#1f1e1e" fill-opacity="1"><g transform="translate(314.977398, 45.106242)"><g><path d="M 3.917969 -18.140625 L 1.957031 -18.140625 L 14.769531 0 L 16.917969 0 Z M 15.257812 -18.140625 L 15.257812 -3.453125 L 16.808594 -1.386719 L 16.808594 -18.140625 Z M 3.644531 0 L 3.644531 -14.363281 L 2.09375 -16.59375 L 2.09375 0 Z M 3.644531 0 "/></g></g></g></svg>